<svg width="81" height="81" xmlns="http://www.w3.org/2000/svg" xmlns:xlink="http://www.w3.org/1999/xlink" xmlns:svgjs="http://svgjs.com/svgjs" viewBox="415 12098 81 81"><svg width="53" height="56" xmlns="http://www.w3.org/2000/svg" xmlns:xlink="http://www.w3.org/1999/xlink" xmlns:svgjs="http://svgjs.com/svgjs" viewBox="0.06 0 52.88 56" fill="white" x="443" y="12123"><svg xmlns="http://www.w3.org/2000/svg" xmlns:xlink="http://www.w3.org/1999/xlink" width="53" height="56" viewBox="0.736 0.826 52.011 55.079"><path paint-order="stroke fill markers" fill-rule="evenodd" d="M52.726 55.905v-.003h.02V26.388c0-14.44-3.108-25.562-19.988-25.562-8.116 0-13.56 4.452-15.784 8.674h-.234V2.174H.736v53.728h16.663V29.298c0-7.004 1.328-13.78 10.005-13.78 8.545 0 8.673 7.995 8.673 14.23v26.157h16.65z"/></svg></svg><svg width="18" height="54" xmlns="http://www.w3.org/2000/svg" xmlns:xlink="http://www.w3.org/1999/xlink" xmlns:svgjs="http://svgjs.com/svgjs" viewBox="0.616 0 16.768 54" fill="white" x="416" y="12125"><svg xmlns="http://www.w3.org/2000/svg" xmlns:xlink="http://www.w3.org/1999/xlink" width="18" height="54" viewBox="0.602 0.177 16.684 53.728"><path paint-order="stroke fill markers" fill-rule="evenodd" d="M.602.177h16.684v53.728H.602V.177z"/></svg></svg><svg width="20" height="20" xmlns="http://www.w3.org/2000/svg" xmlns:xlink="http://www.w3.org/1999/xlink" xmlns:svgjs="http://svgjs.com/svgjs" viewBox="0.047 0 19.906 20" fill="white" x="415" y="12098"><svg xmlns="http://www.w3.org/2000/svg" width="20" height="20" viewBox="0.272 0.428 19.327 19.418"><path paint-order="stroke fill markers" fill-rule="evenodd" d="M9.937.428C4.6.428.272 4.757.272 10.093c0 5.334 4.328 9.753 9.665 9.753 5.334 0 9.662-4.42 9.662-9.753-.003-5.336-4.33-9.665-9.662-9.665z"/></svg></svg></svg>